<?xml version="1.0" encoding="UTF-8"?>
<svg version="1.1" xmlns="http://www.w3.org/2000/svg" width="3375" height="3375">
<path d="M0 0 C445.83 0 891.66 0 1351 0 C1351 83.82 1351 167.64 1351 254 C1382.02 254 1413.04 254 1445 254 C1445 170.18 1445 86.36 1445 0 C1537.53500943 -0.62405423 1537.53500943 -0.62405423 1566.17750549 -0.79515076 C1567.19901305 -0.8012681 1568.22052062 -0.80738544 1569.27298295 -0.81368816 C1603.68049861 -1.01918149 1638.08807844 -1.18190352 1672.49595642 -1.31263733 C1673.61946669 -1.3169171 1674.74297695 -1.32119687 1675.90053298 -1.32560633 C1700.32126267 -1.41840053 1724.74201211 -1.50427416 1749.16279102 -1.58302521 C1761.1398631 -1.62169045 1773.11692983 -1.66188392 1785.09399414 -1.70288086 C1786.28581476 -1.70693439 1787.47763539 -1.71098792 1788.70557179 -1.71516429 C1827.29109232 -1.84711406 1865.87519952 -2.0798471 1904.45986488 -2.36521384 C1944.13232126 -2.65809071 1983.80399648 -2.84855543 2023.47751562 -2.91136469 C2029.0894124 -2.92029664 2034.70130653 -2.93039135 2040.3132 -2.94119453 C2041.9698454 -2.9443297 2041.9698454 -2.9443297 2043.65995839 -2.94752821 C2061.39247022 -2.9840704 2079.1225567 -3.12759336 2096.85408191 -3.31179305 C2114.70897892 -3.49496705 2132.56148784 -3.56384531 2150.41729028 -3.5185427 C2160.08223328 -3.49712993 2169.74066325 -3.52516206 2179.40430069 -3.69536972 C2244.2513347 -4.79526061 2244.2513347 -4.79526061 2260.93479484 10.94555229 C2266.34047057 16.58482148 2270.7825358 22.72082836 2274.91043799 29.33193724 C2278.83222768 35.33599324 2284.25358044 40.39540375 2289.34375 45.40625 C2290.2029303 46.25975037 2290.2029303 46.25975037 2291.07946777 47.13049316 C2292.88385251 48.92282982 2294.6914736 50.71184316 2296.5 52.5 C2309.81604763 65.66606801 2309.81604763 65.66606801 2313.46875 69.96875 C2318.89761801 76.35525683 2325.04561369 82.11010163 2331 88 C2344.93211836 101.78122899 2344.93211836 101.78122899 2350.12158203 107.89453125 C2354.8151054 113.15537678 2359.93527141 118.03522276 2364.9375 123 C2366.11026009 124.16773374 2367.28278798 125.33570074 2368.45507812 126.50390625 C2371.30071689 129.33863234 2374.14947453 132.17018824 2377 135 C2380.30973314 132.31213739 2383.38886763 129.77803367 2386.09375 126.46875 C2389.20517536 122.82393743 2392.50892953 119.40770241 2395.90625 116.03125 C2396.43863281 115.50208984 2396.97101562 114.97292969 2397.51953125 114.42773438 C2399.7351633 112.23056592 2401.95532832 110.03800417 2404.17529297 107.84521484 C2411.55066181 100.6240675 2411.55066181 100.6240675 2418.5 93 C2423.97717042 86.57318587 2430.17180142 80.77521568 2436.17529297 74.84521484 C2443.55066181 67.6240675 2443.55066181 67.6240675 2450.5 60 C2455.97717042 53.57318587 2462.17180142 47.77521568 2468.17529297 41.84521484 C2469.8169273 40.22187975 2471.45538019 38.5953788 2473.09375 36.96875 C2473.5825061 36.48829224 2474.07126221 36.00783447 2474.5748291 35.51281738 C2480.27573987 29.85135263 2485.33180111 24.12361397 2489.58020878 17.27929592 C2496.0391818 8.01556929 2503.31721243 0.85173085 2514.72877955 -1.31634402 C2530.63098181 -3.5344628 2546.92121011 -2.96936307 2562.94363475 -2.70504979 C2570.64399809 -2.58296007 2578.34271734 -2.59786779 2586.04381072 -2.61619166 C2600.25054294 -2.64627828 2614.45479851 -2.57007988 2628.66081047 -2.43179131 C2642.71179452 -2.29536465 2656.76174535 -2.20710874 2670.81338692 -2.18217659 C2671.68936342 -2.18059558 2672.56533992 -2.17901457 2673.46786116 -2.17738565 C2677.91710261 -2.16960322 2682.36634496 -2.16267167 2686.8155883 -2.1560675 C2718.2717211 -2.10784872 2749.72650885 -1.95314722 2781.18188477 -1.73510742 C2811.72673425 -1.5236246 2842.27121472 -1.36082108 2872.81665039 -1.26342773 C2874.23071883 -1.25889008 2874.23071883 -1.25889008 2875.6733543 -1.25426076 C2885.14107248 -1.22393295 2894.60879351 -1.1945895 2904.07651699 -1.165967 C2923.3607284 -1.10764523 2942.64491587 -1.04275645 2961.92909241 -0.97389221 C2962.81560923 -0.97073454 2963.70212605 -0.96757687 2964.61550701 -0.96432352 C3023.74423133 -0.75296159 3082.87220691 -0.38855181 3142 0 C3141.05260127 1.11302586 3140.10409116 2.22510577 3139.15512085 3.33679199 C3138.62704016 3.95618401 3138.09895947 4.57557602 3137.55487633 5.21373749 C3135.49429193 7.58096412 3133.3188895 9.81078676 3131.1015625 12.03125 C3130.20953125 12.92457031 3129.3175 13.81789063 3128.3984375 14.73828125 C3127.48320312 15.64964844 3126.56796875 16.56101562 3125.625 17.5 C3124.7175 18.41136719 3123.81 19.32273437 3122.875 20.26171875 C3119.00687518 24.1242699 3115.14434661 27.94220661 3110.9921875 31.5 C3105.88348836 35.88295079 3101.22273971 40.70950219 3096.5 45.5 C3091.16601368 50.9105141 3085.83955219 56.21172831 3080.06835938 61.15429688 C3075.68533919 65.06549052 3071.62254675 69.31830624 3067.5 73.5 C3062.16601368 78.9105141 3056.83955219 84.21172831 3051.06835938 89.15429688 C3046.68533919 93.06549052 3042.62254675 97.31830624 3038.5 101.5 C3033.16601368 106.9105141 3027.83955219 112.21172831 3022.06835938 117.15429688 C3017.68533919 121.06549052 3013.62254675 125.31830624 3009.5 129.5 C3004.16601368 134.9105141 2998.83955219 140.21172831 2993.06835938 145.15429688 C2988.68533919 149.06549052 2984.62254675 153.31830624 2980.5 157.5 C2975.16601368 162.9105141 2969.83955219 168.21172831 2964.06835938 173.15429688 C2959.68533919 177.06549052 2955.62254675 181.31830624 2951.5 185.5 C2946.16601368 190.9105141 2940.83955219 196.21172831 2935.06835938 201.15429688 C2930.68533919 205.06549052 2926.62254675 209.31830624 2922.5 213.5 C2917.16601368 218.9105141 2911.83955219 224.21172831 2906.06835938 229.15429688 C2901.68533919 233.06549052 2897.62254675 237.31830624 2893.5 241.5 C2888.16601368 246.9105141 2882.83955219 252.21172831 2877.06835938 257.15429688 C2872.68533919 261.06549052 2868.62254675 265.31830624 2864.5 269.5 C2859.16601368 274.9105141 2853.83955219 280.21172831 2848.06835938 285.15429688 C2843.68533919 289.06549052 2839.62254675 293.31830624 2835.5 297.5 C2830.16601368 302.9105141 2824.83955219 308.21172831 2819.06835938 313.15429688 C2814.68533919 317.06549052 2810.62254675 321.31830624 2806.5 325.5 C2801.16601368 330.9105141 2795.83955219 336.21172831 2790.06835938 341.15429688 C2785.68533919 345.06549052 2781.62254675 349.31830624 2777.5 353.5 C2772.16601368 358.9105141 2766.83955219 364.21172831 2761.06835938 369.15429688 C2756.68533919 373.06549052 2752.62254675 377.31830624 2748.5 381.5 C2743.16601368 386.9105141 2737.83955219 392.21172831 2732.06835938 397.15429688 C2727.68533919 401.06549052 2723.62254675 405.31830624 2719.5 409.5 C2714.1699791 414.90649179 2708.84808058 420.20609563 2703.08154297 425.14550781 C2698.63625957 429.10590808 2694.50150148 433.397513 2690.3125 437.625 C2689.38888672 438.553125 2688.46527344 439.48125 2687.51367188 440.4375 C2685.79741212 442.16240902 2684.08219003 443.88835167 2682.3684082 445.61572266 C2679.91781946 448.08273118 2677.46003895 450.54241809 2675 453 C2676.17433594 452.48050781 2677.34867188 451.96101563 2678.55859375 451.42578125 C2689.19518301 446.78703411 2699.71334233 442.72861595 2711 440 C2712.16354004 439.70585205 2712.16354004 439.70585205 2713.35058594 439.40576172 C2726.74691397 436.14597079 2740.03210174 435.60650432 2753.75 435.5625 C2754.56245178 435.5563266 2755.37490356 435.5501532 2756.2119751 435.54379272 C2772.02612082 435.46653272 2787.57204435 437.20267925 2802.75 441.8125 C2803.62720703 442.07329346 2804.50441406 442.33408691 2805.40820312 442.6027832 C2826.22236848 448.92735082 2845.82039185 458.61357876 2863 472 C2864.33611328 473.00353516 2864.33611328 473.00353516 2865.69921875 474.02734375 C2903.10274417 503.1562477 2926.00095689 546.16743956 2932.53051758 592.7878418 C2938.04048386 637.91083863 2926.41493099 686.1468187 2898.6953125 722.421875 C2895.57163038 726.37636757 2892.31802434 730.20797219 2889 734 C2888.29931396 734.81017578 2888.29931396 734.81017578 2887.58447266 735.63671875 C2868.55282035 757.56074041 2843.80053821 773.27978472 2817 784 C2916 784.33 3015 784.66 3117 785 C3113.28816971 789.33046867 3110.24008125 792.87085324 3106.0625 796.5 C3103.07602586 799.13381128 3100.16185364 801.78075121 3097.375 804.625 C3095.0267111 807.01728495 3092.60395483 809.25135536 3090.0625 811.4375 C3087.25423653 813.85617779 3084.60029407 816.35899683 3082 819 C3078.79970478 822.25029983 3075.45775424 825.24724245 3072 828.21875 C3069.91662922 830.0742521 3067.95718793 832.01223101 3066 834 C3062.79970478 837.25029983 3059.45775424 840.24724245 3056 843.21875 C3053.91662922 845.0742521 3051.95718793 847.01223101 3050 849 C3046.79970478 852.25029983 3043.45775424 855.24724245 3040 858.21875 C3037.91662922 860.0742521 3035.95718793 862.01223101 3034 864 C3030.79970478 867.25029983 3027.45775424 870.24724245 3024 873.21875 C3021.91662922 875.0742521 3019.95718793 877.01223101 3018 879 C3014.79970478 882.25029983 3011.45775424 885.24724245 3008 888.21875 C3005.21114467 890.70257428 3002.62313017 893.36711437 3000.00390625 896.02734375 C2997.41753849 898.57337829 2994.6846472 900.92021557 2991.93359375 903.28515625 C2990.04505403 904.96004299 2988.26844352 906.69947587 2986.5 908.5 C2984.10946833 910.93389732 2981.64953738 913.21355559 2979.0625 915.4375 C2976.25423653 917.85617779 2973.60029407 920.35899683 2971 923 C2967.79970478 926.25029983 2964.45775424 929.24724245 2961 932.21875 C2958.91662922 934.0742521 2956.95718793 936.01223101 2955 938 C2951.79970478 941.25029983 2948.45775424 944.24724245 2945 947.21875 C2942.91662922 949.0742521 2940.95718793 951.01223101 2939 953 C2935.79970478 956.25029983 2932.45775424 959.24724245 2929 962.21875 C2926.91662922 964.0742521 2924.95718793 966.01223101 2923 968 C2919.79970478 971.25029983 2916.45775424 974.24724245 2913 977.21875 C2910.91662922 979.0742521 2908.95718793 981.01223101 2907 983 C2903.79970478 986.25029983 2900.45775424 989.24724245 2897 992.21875 C2894.91662922 994.0742521 2892.95718793 996.01223101 2891 998 C2887.79970478 1001.25029983 2884.45775424 1004.24724245 2881 1007.21875 C2878.91662922 1009.0742521 2876.95718793 1011.01223101 2875 1013 C2871.79970478 1016.25029983 2868.45775424 1019.24724245 2865 1022.21875 C2862.91662922 1024.0742521 2860.95718793 1026.01223101 2859 1028 C2855.79970478 1031.25029983 2852.45775424 1034.24724245 2849 1037.21875 C2846.21114467 1039.70257428 2843.62313017 1042.36711437 2841.00390625 1045.02734375 C2838.41753849 1047.57337829 2835.6846472 1049.92021557 2832.93359375 1052.28515625 C2831.04505403 1053.96004299 2829.26844352 1055.69947587 2827.5 1057.5 C2825.10946833 1059.93389732 2822.64953738 1062.21355559 2820.0625 1064.4375 C2817.25423653 1066.85617779 2814.60029407 1069.35899683 2812 1072 C2808.79970478 1075.25029983 2805.45775424 1078.24724245 2802 1081.21875 C2799.91662922 1083.0742521 2797.95718793 1085.01223101 2796 1087 C2792.79970478 1090.25029983 2789.45775424 1093.24724245 2786 1096.21875 C2783.91662922 1098.0742521 2781.95718793 1100.01223101 2780 1102 C2776.79970478 1105.25029983 2773.45775424 1108.24724245 2770 1111.21875 C2767.91662922 1113.0742521 2765.95718793 1115.01223101 2764 1117 C2760.79970478 1120.25029983 2757.45775424 1123.24724245 2754 1126.21875 C2751.91662922 1128.0742521 2749.95718793 1130.01223101 2748 1132 C2744.79970478 1135.25029983 2741.45775424 1138.24724245 2738 1141.21875 C2735.91662922 1143.0742521 2733.95718793 1145.01223101 2732 1147 C2728.79970478 1150.25029983 2725.45775424 1153.24724245 2722 1156.21875 C2719.91662922 1158.0742521 2717.95718793 1160.01223101 2716 1162 C2712.79970478 1165.25029983 2709.45775424 1168.24724245 2706 1171.21875 C2703.21114467 1173.70257428 2700.62313017 1176.36711437 2698.00390625 1179.02734375 C2695.41753849 1181.57337829 2692.6846472 1183.92021557 2689.93359375 1186.28515625 C2688.04505403 1187.96004299 2686.26844352 1189.69947587 2684.5 1191.5 C2681.49115823 1194.56342393 2678.31646525 1197.36197425 2675.05859375 1200.15625 C2672.11309409 1202.79434457 2669.39038568 1205.6339975 2666.6640625 1208.49609375 C2665 1210 2665 1210 2663 1210 C2667.56033108 1215.45015177 2672.42328528 1220.53337866 2677.4375 1225.5625 C2678.36767944 1226.49944702 2678.36767944 1226.49944702 2679.31665039 1227.45532227 C2682.30203556 1230.43133784 2685.32204374 1233.30618732 2688.53735352 1236.03295898 C2693.47169051 1240.33209724 2698.07006466 1244.95667391 2702.67591858 1249.60075378 C2704.25573133 1251.19353491 2705.83882586 1252.78299157 2707.42272949 1254.3717041 C2711.35292659 1258.31514616 2715.27760772 1262.26406286 2719.20245361 1266.21282959 C2722.53115714 1269.56139027 2725.86198931 1272.90780693 2729.1955719 1276.25151062 C2730.74181555 1277.80415238 2732.2849738 1279.35981403 2733.82800293 1280.91564941 C2737.78186729 1284.88986914 2741.72568374 1288.83815137 2745.98632812 1292.48632812 C2750.86104731 1296.66257824 2755.34372895 1301.231871 2759.8611145 1305.78594971 C2761.47453514 1307.41233269 2763.09123271 1309.03539696 2764.70874023 1310.65771484 C2768.72241101 1314.68463423 2772.73056835 1318.71702663 2776.7388916 1322.74926758 C2780.13805724 1326.1682862 2783.53934867 1329.58516399 2786.94338989 1332.99932861 C2788.52287066 1334.58521006 2790.09926797 1336.17411096 2791.67553711 1337.76318359 C2796.29092904 1342.40184051 2800.95689044 1346.89630277 2805.92773438 1351.15258789 C2810.01114296 1354.79292162 2813.82497447 1358.71784904 2817.67591858 1362.60075378 C2819.25573133 1364.19353491 2820.83882586 1365.78299157 2822.42272949 1367.3717041 C2826.35292659 1371.31514616 2830.27760772 1375.26406286 2834.20245361 1379.21282959 C2837.53115714 1382.56139027 2840.86198931 1385.90780693 2844.1955719 1389.25151062 C2845.74181555 1390.80415238 2847.2849738 1392.35981403 2848.82800293 1393.91564941 C2852.78186729 1397.88986914 2856.72568374 1401.83815137 2860.98632812 1405.48632812 C2865.86104731 1409.66257824 2870.34372895 1414.231871 2874.8611145 1418.78594971 C2876.47453514 1420.41233269 2878.09123271 1422.03539696 2879.70874023 1423.65771484 C2883.72241101 1427.68463423 2887.73056835 1431.71702663 2891.7388916 1435.74926758 C2895.13805724 1439.1682862 2898.53934867 1442.58516399 2901.94338989 1445.99932861 C2903.52287066 1447.58521006 2905.09926797 1449.17411096 2906.67553711 1450.76318359 C2911.29092904 1455.40184051 2915.95689044 1459.89630277 2920.92773438 1464.15258789 C2925.01114296 1467.79292162 2928.82497447 1471.71784904 2932.67591858 1475.60075378 C2934.25573133 1477.19353491 2935.83882586 1478.78299157 2937.42272949 1480.3717041 C2941.35292659 1484.31514616 2945.27760772 1488.26406286 2949.20245361 1492.21282959 C2952.53115714 1495.56139027 2955.86198931 1498.90780693 2959.1955719 1502.25151062 C2960.74181555 1503.80415238 2962.2849738 1505.35981403 2963.82800293 1506.91564941 C2967.78186729 1510.88986914 2971.72568374 1514.83815137 2975.98632812 1518.48632812 C2980.86104731 1522.66257824 2985.34372895 1527.231871 2989.8611145 1531.78594971 C2991.47453514 1533.41233269 2993.09123271 1535.03539696 2994.70874023 1536.65771484 C2998.72241101 1540.68463423 3002.73056835 1544.71702663 3006.7388916 1548.74926758 C3010.13805724 1552.1682862 3013.53934867 1555.58516399 3016.94338989 1558.99932861 C3018.52287066 1560.58521006 3020.09926797 1562.17411096 3021.67553711 1563.76318359 C3026.29092904 1568.40184051 3030.95689044 1572.89630277 3035.92773438 1577.15258789 C3040.01114296 1580.79292162 3043.82497447 1584.71784904 3047.67591858 1588.60075378 C3049.25573133 1590.19353491 3050.83882586 1591.78299157 3052.42272949 1593.3717041 C3056.35292659 1597.31514616 3060.27760772 1601.26406286 3064.20245361 1605.21282959 C3067.53115714 1608.56139027 3070.86198931 1611.90780693 3074.1955719 1615.25151062 C3075.74181555 1616.80415238 3077.2849738 1618.35981403 3078.82800293 1619.91564941 C3083.51639945 1624.62820544 3088.24256669 1629.23621934 3093.31176758 1633.54129028 C3096.17547442 1636.01566344 3098.83536971 1638.68997713 3101.5 1641.375 C3102.03625 1641.90738281 3102.5725 1642.43976563 3103.125 1642.98828125 C3107 1646.87316645 3107 1646.87316645 3107 1648 C3049.43770436 1648.2568293 2991.87535071 1648.49563156 2934.31263733 1648.63514709 C2933.03429219 1648.63825338 2933.03429219 1648.63825338 2931.73012189 1648.64142242 C2913.20792973 1648.68631823 2894.68573148 1648.72787064 2876.16352415 1648.76597994 C2867.07996202 1648.78468965 2857.99640153 1648.804138 2848.9128418 1648.82397461 C2848.00892851 1648.825936 2847.10501522 1648.82789738 2846.17371063 1648.8299182 C2816.88622816 1648.89381471 2787.5991804 1649.00646597 2758.31196118 1649.14445831 C2728.21021906 1649.2860305 2698.10871742 1649.37830074 2668.00664801 1649.40872485 C2663.75291633 1649.41304704 2659.49918546 1649.41793159 2655.24545479 1649.42315865 C2653.98968802 1649.42467566 2653.98968802 1649.42467566 2652.70855222 1649.42622333 C2639.24346226 1649.44393491 2625.77911682 1649.51346564 2612.31433023 1649.60248051 C2598.77060986 1649.69090752 2585.22762598 1649.72449096 2571.68362718 1649.70252066 C2563.64063503 1649.69112903 2555.60034268 1649.72135629 2547.55783923 1649.81196315 C2541.54388027 1649.87507383 2535.53279642 1649.85930281 2529.51857025 1649.81348342 C2527.09159719 1649.80715812 2524.66439462 1649.82608337 2522.23787164 1649.87324774 C2502.24981643 1650.23906559 2502.24981643 1650.23906559 2494.14817858 1642.71852833 C2491.21274905 1639.63154742 2488.5794635 1636.38531111 2486 1633 C2484.73943814 1631.55348439 2483.47248122 1630.11236732 2482.1875 1628.6875 C2481.43533203 1627.79611328 2481.43533203 1627.79611328 2480.66796875 1626.88671875 C2477.74252719 1623.57761272 2474.54311993 1620.53658615 2471.40234375 1617.43359375 C2469.36285627 1615.36757635 2467.444922 1613.26994451 2465.5625 1611.0625 C2462.69827665 1607.71074927 2459.63666284 1604.59443244 2456.5 1601.5 C2452.75969662 1597.81005412 2449.2176065 1594.02496302 2445.80859375 1590.02734375 C2442.82471996 1586.68256946 2439.59380268 1583.58664843 2436.40625 1580.4375 C2433.75040247 1577.74716094 2431.29864568 1574.93426475 2428.84375 1572.0625 C2426.65203687 1569.61075311 2424.33932896 1567.31114427 2422 1565 C2419.06881809 1562.10408042 2416.23596826 1559.19757429 2413.5625 1556.0625 C2410.69827665 1552.71074927 2407.63666284 1549.59443244 2404.5 1546.5 C2400.75969662 1542.81005412 2397.2176065 1539.02496302 2393.80859375 1535.02734375 C2390.83204695 1531.69078265 2387.60958593 1528.60217455 2384.4296875 1525.4609375 C2381.64619583 1522.64164529 2379.04837931 1519.70336732 2376.47265625 1516.6953125 C2374.73937606 1514.69997138 2372.90632672 1512.83007366 2371 1511 C2366.77362683 1512.59618369 2364.2307778 1515.77074239 2361.3125 1519.0625 C2360.24373436 1520.24619018 2359.17341089 1521.42847557 2358.1015625 1522.609375 C2357.57594727 1523.18880859 2357.05033203 1523.76824219 2356.50878906 1524.36523438 C2354.46482396 1526.57986064 2352.3366543 1528.70027275 2350.1875 1530.8125 C2347.54612409 1533.41607446 2345.03426635 1536.05564576 2342.625 1538.875 C2339.737852 1542.24557743 2336.65753002 1545.38503864 2333.5 1548.5 C2330.38420505 1551.57390191 2327.34122742 1554.66702168 2324.5 1558 C2321.2169922 1561.85122069 2317.64595488 1565.3828886 2314.046875 1568.93359375 C2311.41976442 1571.53905232 2308.90006916 1574.18453425 2306.5 1577 C2303.2169922 1580.85122069 2299.64595488 1584.3828886 2296.046875 1587.93359375 C2293.41976442 1590.53905232 2290.90006916 1593.18453425 2288.5 1596 C2285.65877199 1599.33297901 2282.61578377 1602.42608801 2279.5 1605.5 C2276.40508498 1608.55337951 2273.38065723 1611.62323685 2270.5625 1614.9375 C2267.06423799 1619.04268939 2263.24316838 1622.78437205 2259.40917969 1626.57128906 C2256.5994663 1629.3598104 2253.88921033 1632.17833478 2251.3125 1635.1875 C2250.80220702 1635.76062677 2250.29191403 1636.33375353 2249.76615762 1636.92424778 C2247.95529238 1638.97936596 2247.95529238 1638.97936596 2246.42367319 1641.30213135 C2243.15846321 1645.46178663 2240.14688487 1648.07441707 2234.84897404 1648.83022381 C2229.44910746 1649.2696767 2224.04891086 1649.17499511 2218.63635159 1649.10743046 C2216.52305387 1649.11408933 2214.40976556 1649.1246989 2212.29650506 1649.13889894 C2206.47035195 1649.16654622 2200.64560994 1649.1379267 2194.81956186 1649.10039574 C2188.48877652 1649.06951184 2182.15813564 1649.09082039 2175.82732207 1649.10559314 C2164.72580605 1649.12427044 2153.62473182 1649.10973475 2142.52326775 1649.07284927 C2130.61181523 1649.03344688 2118.7005707 1649.01369589 2106.78905106 1649.01796913 C2106.03673577 1649.01822736 2105.28442049 1649.01848559 2104.50930777 1649.01875165 C2100.67325423 1649.02015902 2096.83720091 1649.02188656 2093.00114756 1649.02372717 C2065.23463659 1649.03639516 2037.46831076 1649.00551557 2009.70185661 1648.95157051 C1982.20312522 1648.89827321 1954.70447309 1648.8635957 1927.20569038 1648.85389519 C1926.35176919 1648.85358548 1925.497848 1648.85327577 1924.61805041 1648.85295668 C1916.81882598 1648.8501379 1909.01960148 1648.84754868 1901.22037687 1648.84523491 C1881.83214846 1648.83948025 1862.4439219 1648.83084629 1843.05569553 1648.82025814 C1842.17278651 1648.81977828 1841.28987748 1648.81929843 1840.38021363 1648.81880403 C1797.42898301 1648.79520882 1754.47780471 1648.73844017 1711.52661133 1648.67895508 C1696.62109415 1648.65833018 1681.7155768 1648.63785193 1666.81005859 1648.61798096 C1665.88562023 1648.61674841 1664.96118187 1648.61551587 1664.00873023 1648.61424598 C1621.03600013 1648.55715198 1578.06326104 1648.52361983 1535.09050297 1648.4961678 C1532.30076855 1648.49438523 1529.51103414 1648.49259249 1526.72129973 1648.49079769 C1508.23362442 1648.47891968 1489.74594887 1648.46744783 1471.25827314 1648.45624795 C1434.47221065 1648.43395929 1397.68614988 1648.40928414 1360.90009006 1648.38296953 C1359.14823167 1648.38171637 1357.39637328 1648.38046488 1355.64451489 1648.37921506 C1301.68283259 1648.34070807 1247.72116829 1648.2914303 1193.75950623 1648.23085022 C1191.5828293 1648.22841271 1189.40615237 1648.22597528 1187.22947545 1648.22353871 C1126.81964239 1648.15558186 1066.40982286 1648.07632395 1006 1648 C1006 1560.55 1006 1473.1 1006 1383 C995.605 1389.435 995.605 1389.435 985 1396 C980.98947723 1398.26535805 977.02976128 1400.47066604 972.9375 1402.5625 C971.9047998 1403.09222412 970.87209961 1403.62194824 969.80810547 1404.16772461 C891.22434045 1443.84834407 801.68011746 1456.91117533 589.4375 1467.125 C574.113125 1467.08375 558.78875 1467.0425 543 1467 C543 1526.73 543 1586.46 543 1648 C378.33 1648 213.66 1648 44 1648 C44 1363.21 44 1078.42 44 785 C110.66 785 177.32 785 246 785 C246 654.98 246 524.96 246 391 C164.82 391 83.64 391 0 391 C0 261.97 0 132.94 0 0 Z " fill="#000000" transform="translate(175,834)"/>
<path d="M0 0 C78.849375 -0.020625 157.69875 -0.04125 238.9375 -0.0625 C276.2325354 -0.07615601 276.2325354 -0.07615601 314.28100586 -0.09008789 C344.72766113 -0.09460449 344.72766113 -0.09460449 358.99757385 -0.09544373 C368.92779276 -0.0963724 378.85800597 -0.10002414 388.78822327 -0.10557556 C400.2657918 -0.11198242 411.74335492 -0.11482633 423.22092525 -0.11344495 C429.08059207 -0.11284765 434.94024682 -0.11373285 440.79991138 -0.11921513 C474.52499131 -0.14917807 508.1073909 0.18967203 541.75 2.8125 C543.47317947 2.94413544 543.47317947 2.94413544 545.23117065 3.07843018 C586.55073504 6.24408355 627.48827951 11.04368133 668 20 C668.9389209 20.2052832 669.8778418 20.41056641 670.84521484 20.62207031 C696.56761745 26.35185101 722.15343512 34.76753592 746 46 C746.83772949 46.39010254 747.67545898 46.78020508 748.53857422 47.18212891 C793.42259327 68.25360164 827.53483528 101.43386039 845.62109375 148.05859375 C846.8940976 151.67931811 847.98184315 155.29968369 849 159 C849.20818359 159.71639648 849.41636719 160.43279297 849.63085938 161.17089844 C856.47933939 185.0401609 857.76962053 210.29037083 857 235 C856.98453125 235.72074707 856.9690625 236.44149414 856.953125 237.18408203 C855.92525627 281.2004189 839.2332867 324.07635382 809 356 C808.54850586 356.48936035 808.09701172 356.9787207 807.63183594 357.48291016 C794.78980849 371.34832715 779.40733845 381.7711489 763 391 C762.40687012 391.33837891 761.81374023 391.67675781 761.20263672 392.02539062 C723.33042766 413.51404301 679.42634846 423.84394371 636.97412109 431.63476562 C634.30316259 432.12892268 631.63633782 432.64425123 628.96875 433.15625 C611.54925687 436.38155711 593.87670529 438.00511872 576.26953125 439.8515625 C575.44793015 439.9378894 574.62632904 440.02421631 573.77983093 440.11315918 C571.98326615 440.29906364 570.18632153 440.48131566 568.38911438 440.66090393 C566.56071995 440.84384298 564.73243717 441.02800619 562.90489769 441.21929741 C547.34072256 442.84549563 531.76720015 443.87548781 516.13671875 444.61328125 C515.45016386 444.64594534 514.76360897 444.67860943 514.05624938 444.71226335 C468.36182789 446.85966171 422.59369593 446.34425085 376.86242378 446.21608174 C362.05513449 446.17532641 347.24781573 446.15989552 332.44048405 446.14255047 C309.29358458 446.11480957 286.146888 446.0549131 263 446 C263 505.73 263 565.46 263 627 C176.21 627 89.42 627 0 627 C0 420.09 0 213.18 0 0 Z " fill="#FE3030" transform="translate(337,1737)"/>
<path d="M0 0 C87.12 0 174.24 0 264 0 C264 83.49 264 166.98 264 253 C372.9 253 481.8 253 594 253 C594 169.51 594 86.02 594 0 C681.12 0 768.24 0 858 0 C858 207.24 858 414.48 858 628 C770.88 628 683.76 628 594 628 C594 544.51 594 461.02 594 375 C485.1 375 376.2 375 264 375 C264 458.49 264 541.98 264 628 C176.88 628 89.76 628 0 628 C0 420.76 0 213.52 0 0 Z " fill="#FD3030" transform="translate(1144,952)"/>
<path d="M0 0 C237.93 0 475.86 0 721 0 C721 51.15 721 102.3 721 155 C569.86 155 418.72 155 263 155 C263 187.34 263 219.68 263 253 C390.71 253 518.42 253 650 253 C650 292.93 650 332.86 650 374 C522.29 374 394.58 374 263 374 C263 406.34 263 438.68 263 472 C425.36 472 587.72 472 755 472 C755 523.15 755 574.3 755 627 C505.85 627 256.7 627 0 627 C0 420.09 0 213.18 0 0 Z " fill="#FE3030" transform="translate(1299,1737)"/>
<path d="M0 0 C33.75056612 -0.1831446 67.50100851 -0.32409406 101.25196126 -0.40852264 C105.23731092 -0.41852819 109.22265961 -0.42888278 113.20800781 -0.43945312 C114.00141286 -0.44155161 114.7948179 -0.44365009 115.61226553 -0.44581217 C128.45600132 -0.48061487 141.2994504 -0.54368686 154.14301616 -0.61722237 C167.32350154 -0.69205703 180.50383686 -0.73647489 193.68452597 -0.75270796 C201.81672244 -0.76368058 209.94810854 -0.79832377 218.08005553 -0.86333174 C224.31764245 -0.91065328 230.55461268 -0.91563604 236.79235458 -0.90486145 C239.34978601 -0.90706322 241.90724797 -0.92298876 244.46449661 -0.9536438 C247.95731744 -0.99346192 251.44667394 -0.98387882 254.9395752 -0.96203613 C255.95126471 -0.98533886 256.96295423 -1.0086416 258.005301 -1.03265047 C263.59762192 -0.93814059 266.44694563 -0.1476881 270.4641037 3.86396027 C271.6476434 5.23842951 272.82654378 6.616912 274 8 C275.19046656 9.07019659 276.39943169 10.12059455 277.63476562 11.13867188 C283.34586468 16.06351546 288.58661437 21.47649463 293.89826965 26.82310486 C295.88137034 28.81911524 297.86770574 30.81185706 299.8548584 32.80383301 C304.78674428 37.74899951 309.71313887 42.69962469 314.63970947 47.65008545 C318.81395355 51.84414606 322.99029856 56.03609363 327.16938782 60.22532654 C329.11448045 62.17684251 331.05650666 64.13137385 332.99841309 66.08605957 C339.80979693 72.98032108 339.80979693 72.98032108 346.98632812 79.48632812 C352.66680472 84.32261706 357.82909619 89.71994001 363.08346558 95.00830078 C365.10017306 97.03791415 367.12011221 99.06426258 369.14086914 101.08984375 C374.15622945 106.11848702 379.16610008 111.15258791 384.17614746 116.18652344 C388.42085288 120.45104273 392.66765742 124.71345102 396.91720581 128.97314453 C398.89553614 130.95789986 400.87080129 132.94567023 402.84594727 134.93359375 C408.20021068 140.30933497 413.5351616 145.61814881 419.31994629 150.53588867 C422.14989887 153.00209889 424.72872575 155.70160574 427.328125 158.40625 C428.46816326 159.57349002 429.608805 160.74014088 430.75 161.90625 C432.51585769 163.71566024 434.27745565 165.52857075 436.02929688 167.3515625 C437.74264668 169.13117445 439.47121248 170.89472404 441.203125 172.65625 C441.98759003 173.48413025 441.98759003 173.48413025 442.78790283 174.32873535 C444.41636181 176.02744988 444.41636181 176.02744988 447 178 C450.39691295 177.69973719 452.07552665 176.29531377 454.42633057 173.92770386 C455.08498611 173.27172714 455.74364166 172.61575043 456.42225647 171.93989563 C457.13401535 171.21577988 457.84577423 170.49166412 458.57910156 169.74560547 C459.71650032 168.60645439 459.71650032 168.60645439 460.87687683 167.44429016 C463.38848646 164.92547863 465.8894092 162.39631696 468.390625 159.8671875 C470.13621397 158.11346111 471.8825421 156.36047017 473.62957764 154.60818481 C478.23610747 149.9845103 482.83401151 145.35235592 487.42974854 140.71795654 C494.76855055 133.31849048 502.12146474 125.93303945 509.4743576 118.54758072 C512.03616445 115.97187569 514.59407561 113.39235201 517.15142822 110.81222534 C518.73530393 109.21831636 520.31926362 107.62449083 521.90332031 106.03076172 C522.60698227 105.31879135 523.31064423 104.60682098 524.03562927 103.87327576 C527.90250887 99.98930627 531.88140226 96.32209799 536.03042221 92.74261665 C539.38082022 89.77829638 542.51617405 86.60613934 545.66601562 83.43164062 C546.74576912 82.34969673 546.74576912 82.34969673 547.84733582 81.24589539 C549.39635107 79.69310046 550.944211 78.1391523 552.49101257 76.58415222 C554.94460379 74.11769509 557.40139468 71.6544649 559.85900879 69.1920166 C565.07549333 63.96415293 570.28803725 58.73237122 575.5 53.5 C581.54376947 47.43256496 587.5891785 41.36678261 593.63883972 35.30522156 C596.04926275 32.88835615 598.45663357 30.46847913 600.8638916 28.04846191 C602.35377295 26.55494518 603.84379649 25.06157027 605.33398438 23.56835938 C605.9939592 22.90321823 606.65393402 22.23807709 607.33390808 21.55278015 C611.03309984 17.85317479 614.82646156 14.34972699 618.82846218 10.97940868 C621.05113238 9.03154444 621.05113238 9.03154444 622.97444624 6.71876436 C626.69638891 2.47214704 629.48534457 -0.50510355 635.26165104 -1.10743046 C637.23432326 -1.14485669 639.208318 -1.13354737 641.18067932 -1.08229065 C642.82155145 -1.09382538 642.82155145 -1.09382538 644.49557251 -1.10559314 C648.14498308 -1.12036643 651.79063257 -1.07101346 655.43969727 -1.02172852 C658.06168022 -1.01918873 660.68366957 -1.02061703 663.3056488 -1.02571106 C668.94205395 -1.03041833 674.57751765 -1.0023096 680.21368599 -0.95157051 C688.36235283 -0.87826084 696.51056692 -0.85497093 704.65952777 -0.84367859 C717.88208157 -0.82400659 731.10413417 -0.76418289 744.32641602 -0.67895508 C757.16655987 -0.59627678 770.00656734 -0.53260416 782.84692383 -0.49438477 C784.0351883 -0.490838 784.0351883 -0.490838 785.24745811 -0.48721958 C789.2217845 -0.47547379 793.19611185 -0.46410053 797.17043984 -0.45291245 C830.11399136 -0.35969197 863.05692849 -0.20124465 896 0 C895.0434578 1.12164994 894.08610792 2.24261112 893.12841797 3.36328125 C892.32886185 4.29974487 892.32886185 4.29974487 891.51315308 5.25512695 C886.78307831 10.70955195 881.46629733 15.52115073 876 20.21875 C873.21114467 22.70257428 870.62313017 25.36711437 868.00390625 28.02734375 C865.41753849 30.57337829 862.6846472 32.92021557 859.93359375 35.28515625 C858.04505403 36.96004299 856.26844352 38.69947587 854.5 40.5 C852.10946833 42.93389732 849.64953738 45.21355559 847.0625 47.4375 C844.25423653 49.85617779 841.60029407 52.35899683 839 55 C835.79970478 58.25029983 832.45775424 61.24724245 829 64.21875 C826.91662922 66.0742521 824.95718793 68.01223101 823 70 C819.79970478 73.25029983 816.45775424 76.24724245 813 79.21875 C810.91662922 81.0742521 808.95718793 83.01223101 807 85 C803.79970478 88.25029983 800.45775424 91.24724245 797 94.21875 C794.91662922 96.0742521 792.95718793 98.01223101 791 100 C787.79970478 103.25029983 784.45775424 106.24724245 781 109.21875 C778.91662922 111.0742521 776.95718793 113.01223101 775 115 C771.79970478 118.25029983 768.45775424 121.24724245 765 124.21875 C762.91662922 126.0742521 760.95718793 128.01223101 759 130 C755.79970478 133.25029983 752.45775424 136.24724245 749 139.21875 C746.91662922 141.0742521 744.95718793 143.01223101 743 145 C739.79970478 148.25029983 736.45775424 151.24724245 733 154.21875 C730.21114467 156.70257428 727.62313017 159.36711437 725.00390625 162.02734375 C722.41753849 164.57337829 719.6846472 166.92021557 716.93359375 169.28515625 C715.04505403 170.96004299 713.26844352 172.69947587 711.5 174.5 C709.10946833 176.93389732 706.64953738 179.21355559 704.0625 181.4375 C701.25423653 183.85617779 698.60029407 186.35899683 696 189 C692.79970478 192.25029983 689.45775424 195.24724245 686 198.21875 C683.91662922 200.0742521 681.95718793 202.01223101 680 204 C676.79970478 207.25029983 673.45775424 210.24724245 670 213.21875 C667.91662922 215.0742521 665.95718793 217.01223101 664 219 C660.79970478 222.25029983 657.45775424 225.24724245 654 228.21875 C651.91662922 230.0742521 649.95718793 232.01223101 648 234 C644.79970478 237.25029983 641.45775424 240.24724245 638 243.21875 C635.91662922 245.0742521 633.95718793 247.01223101 632 249 C628.79970478 252.25029983 625.45775424 255.24724245 622 258.21875 C619.91662922 260.0742521 617.95718793 262.01223101 616 264 C612.79970478 267.25029983 609.45775424 270.24724245 606 273.21875 C603.91662922 275.0742521 601.95718793 277.01223101 600 279 C596.79970478 282.25029983 593.45775424 285.24724245 590 288.21875 C587.22075016 290.69401939 584.6411637 293.3486591 582.03125 296 C578.82466301 299.15725488 575.42577588 302.08444606 572 305 C573.50365401 308.51683356 575.53433142 310.78223642 578.23095703 313.47387695 C579.10591827 314.35191483 579.98087952 315.2299527 580.88235474 316.13459778 C581.84066393 317.08600364 582.79915451 318.03722684 583.7578125 318.98828125 C584.74506539 319.97434043 585.73194714 320.96077133 586.71847534 321.94755554 C588.78840498 324.01592197 590.86164521 326.0808911 592.9375 328.14331055 C595.57836709 330.76728855 598.21270554 333.39769916 600.84475899 336.03051472 C602.88470366 338.07018517 604.92726248 340.10722111 606.97066879 342.14342308 C607.9415293 343.11113294 608.91181305 344.07942184 609.88147354 345.04833412 C614.13686269 349.29685386 618.37549707 353.52592556 622.94482422 357.43823242 C627.82844327 361.63592746 632.32902473 366.21704734 636.8611145 370.78594971 C638.47453514 372.41233269 640.09123271 374.03539696 641.70874023 375.65771484 C645.72241101 379.68463423 649.73056835 383.71702663 653.7388916 387.74926758 C657.13805724 391.1682862 660.53934867 394.58516399 663.94338989 397.99932861 C665.52287066 399.58521006 667.09926797 401.17411096 668.67553711 402.76318359 C673.29092904 407.40184051 677.95689044 411.89630277 682.92773438 416.15258789 C687.01114296 419.79292162 690.82497447 423.71784904 694.67591858 427.60075378 C696.25573133 429.19353491 697.83882586 430.78299157 699.42272949 432.3717041 C703.35292659 436.31514616 707.27760772 440.26406286 711.20245361 444.21282959 C714.53115714 447.56139027 717.86198931 450.90780693 721.1955719 454.25151062 C722.74181555 455.80415238 724.2849738 457.35981403 725.82800293 458.91564941 C729.78186729 462.88986914 733.72568374 466.83815137 737.98632812 470.48632812 C742.86104731 474.66257824 747.34372895 479.231871 751.8611145 483.78594971 C753.47453514 485.41233269 755.09123271 487.03539696 756.70874023 488.65771484 C760.72241101 492.68463423 764.73056835 496.71702663 768.7388916 500.74926758 C772.13805724 504.1682862 775.53934867 507.58516399 778.94338989 510.99932861 C780.52287066 512.58521006 782.09926797 514.17411096 783.67553711 515.76318359 C787.68459457 519.79245039 791.68011186 523.80101658 796 527.5 C800.87089379 531.67079211 805.34829031 536.2364694 809.8611145 540.78594971 C811.47453514 542.41233269 813.09123271 544.03539696 814.70874023 545.65771484 C818.72241101 549.68463423 822.73056835 553.71702663 826.7388916 557.74926758 C830.13805724 561.1682862 833.53934867 564.58516399 836.94338989 567.99932861 C838.52287066 569.58521006 840.09926797 571.17411096 841.67553711 572.76318359 C846.33350272 577.44467411 851.03993359 581.99148015 856.05761719 586.28692627 C859.89891113 589.67473412 863.4780559 593.33597783 867.09375 596.9609375 C867.92588013 597.7921109 868.75801025 598.6232843 869.61535645 599.47964478 C871.35775501 601.22136729 873.09890928 602.96433539 874.83886719 604.70849609 C877.51643628 607.39146946 880.19936304 610.06900317 882.8828125 612.74609375 C884.57844616 614.44238736 886.27377005 616.13899069 887.96875 617.8359375 C888.77485718 618.64002045 889.58096436 619.44410339 890.41149902 620.27255249 C891.14646606 621.01067169 891.88143311 621.74879089 892.63867188 622.50927734 C893.28960815 623.16100922 893.94054443 623.81274109 894.61120605 624.48422241 C896 626 896 626 896 627 C862.40294083 627.38979173 828.80644781 627.68900454 795.2076267 627.8681106 C791.2338731 627.88937058 787.26012393 627.91137426 783.28637695 627.93383789 C782.4953327 627.93829717 781.70428845 627.94275645 780.88927316 627.94735085 C768.10927311 628.02116462 755.33058362 628.15510944 742.55135901 628.31159753 C729.42174471 628.47102577 716.29281288 628.56509271 703.16227049 628.59950441 C695.07029577 628.62274118 686.9820256 628.69588914 678.89119267 628.83457994 C672.66864475 628.93575932 666.44887251 628.94562912 660.22561455 628.92283058 C657.6862964 628.9274807 655.14682893 628.96094533 652.60835266 629.02649307 C640.90123888 629.31378216 631.42763227 629.48695458 622.48249573 621.17401165 C619.73854705 618.30124621 617.18655799 615.33887215 614.73658168 612.21231067 C612.95932744 609.94818537 611.10623871 607.77670933 609.20839024 605.61300755 C608.65494452 604.98180927 608.10149881 604.35061099 607.53128201 603.70028549 C605.43894309 601.37702075 603.2396991 599.18075965 601 597 C597.43599698 593.47893677 594.09695832 589.86813992 590.84375 586.0625 C588.65203687 583.61075311 586.33932896 581.31114427 584 579 C581.06881809 576.10408042 578.23596826 573.19757429 575.5625 570.0625 C572.69827665 566.71074927 569.63666284 563.59443244 566.5 560.5 C562.75969662 556.81005412 559.2176065 553.02496302 555.80859375 549.02734375 C552.82471996 545.68256946 549.59380268 542.58664843 546.40625 539.4375 C543.75040247 536.74716094 541.29864568 533.93426475 538.84375 531.0625 C536.65203687 528.61075311 534.33932896 526.31114427 532 524 C529.06881809 521.10408042 526.23596826 518.19757429 523.5625 515.0625 C520.69827665 511.71074927 517.63666284 508.59443244 514.5 505.5 C510.75969662 501.81005412 507.2176065 498.02496302 503.80859375 494.02734375 C500.82471996 490.68256946 497.59380268 487.58664843 494.40625 484.4375 C491.75040247 481.74716094 489.29864568 478.93426475 486.84375 476.0625 C484.65203687 473.61075311 482.33932896 471.31114427 480 469 C477.06881809 466.10408042 474.23596826 463.19757429 471.5625 460.0625 C468.6982974 456.71077356 465.63694429 453.59413174 462.5 450.5 C458.61421189 446.66225048 454.92909764 442.75723992 451.4375 438.55859375 C449.88661937 436.75428903 449.88661937 436.75428903 447 435 C446.7321167 435.59458008 446.4642334 436.18916016 446.18823242 436.80175781 C444.98789327 439.02239757 443.79297002 440.4243607 441.98828125 442.171875 C441.39893799 442.7496167 440.80959473 443.3273584 440.20239258 443.92260742 C439.57872803 444.52564697 438.95506348 445.12868652 438.3125 445.75 C433.94538949 450.0377586 429.72401841 454.33641368 425.76953125 459.01171875 C423.00069444 462.12284002 420.00956889 465.01071079 417.04614258 467.93432617 C414.41927111 470.53953644 411.89984463 473.18479765 409.5 476 C406.2169922 479.85122069 402.64595488 483.3828886 399.046875 486.93359375 C396.41976442 489.53905232 393.90006916 492.18453425 391.5 495 C388.65877199 498.33297901 385.61578377 501.42608801 382.5 504.5 C379.40508498 507.55337951 376.38065723 510.62323685 373.5625 513.9375 C370.06289503 518.04426535 366.24017991 521.78724806 362.40478516 525.57568359 C359.04955443 528.90566329 355.90282125 532.33922489 352.83984375 535.94140625 C350.04233133 539.07153162 347.03375494 541.98685658 344.04663086 544.93383789 C341.41959998 547.5392137 338.89999432 550.18462205 336.5 553 C333.2169922 556.85122069 329.64595488 560.3828886 326.046875 563.93359375 C323.41976442 566.53905232 320.90006916 569.18453425 318.5 572 C315.2169922 575.85122069 311.64595488 579.3828886 308.046875 582.93359375 C305.41976442 585.53905232 302.90006916 588.18453425 300.5 591 C297.2169922 594.85122069 293.64595488 598.3828886 290.046875 601.93359375 C286.82800458 605.12593502 283.83346488 608.43236568 280.8984375 611.8828125 C277.95323659 615.16737812 274.80062236 618.24132339 271.64257812 621.3203125 C268.9800133 623.89913464 268.9800133 623.89913464 267 627 C178.89 627 90.78 627 0 627 C6.75173337 619.12297774 6.75173337 619.12297774 9.76708984 616.10351562 C10.44154144 615.42591187 11.11599304 614.74830811 11.81088257 614.0501709 C12.5204007 613.342677 13.22991882 612.63518311 13.9609375 611.90625 C14.710336 611.15589478 15.4597345 610.40553955 16.23184204 609.63244629 C17.80893198 608.05467943 19.38727112 606.47816035 20.96679688 604.90283203 C23.36442494 602.51055147 25.75667955 600.11299152 28.1484375 597.71484375 C29.68978373 596.17415853 31.23144026 594.63378365 32.7734375 593.09375 C33.831642 592.03250916 33.831642 592.03250916 34.91122437 590.9498291 C38.12591262 587.75002608 41.36755853 584.64231188 44.81298828 581.69140625 C49.66802087 577.4990123 54.1617475 572.95088234 58.67591858 568.39924622 C60.25573133 566.80646509 61.83882586 565.21700843 63.42272949 563.6282959 C66.78466861 560.25502687 70.14263819 556.87782398 73.5 553.5 C77.39597349 549.58028165 81.29363538 545.66227258 85.1955719 541.74848938 C86.74181555 540.19584762 88.2849738 538.64018597 89.82800293 537.08435059 C93.78186729 533.11013086 97.72568374 529.16184863 101.98632812 525.51367188 C106.86104731 521.33742176 111.34372895 516.768129 115.8611145 512.21405029 C117.47453514 510.58766731 119.09123271 508.96460304 120.70874023 507.34228516 C124.14200746 503.89768516 127.57130684 500.44915219 131 497 C134.97858183 492.99767795 138.9588492 488.99706185 142.94338989 485.00067139 C144.52287066 483.41478994 146.09926797 481.82588904 147.67553711 480.23681641 C152.29092904 475.59815949 156.95689044 471.10369723 161.92773438 466.84741211 C166.01114296 463.20707838 169.82497447 459.28215096 173.67591858 455.39924622 C175.25573133 453.80646509 176.83882586 452.21700843 178.42272949 450.6282959 C181.78466861 447.25502687 185.14263819 443.87782398 188.5 440.5 C192.39597349 436.58028165 196.29363538 432.66227258 200.1955719 428.74848938 C201.74181555 427.19584762 203.2849738 425.64018597 204.82800293 424.08435059 C209.39006571 419.49880217 214.00756339 415.06361392 218.92004395 410.85510254 C223.0053832 407.21140862 226.82238197 403.28476498 230.67591858 399.39924622 C232.25573133 397.80646509 233.83882586 396.21700843 235.42272949 394.6282959 C238.78466861 391.25502687 242.14263819 387.87782398 245.5 384.5 C249.39597349 380.58028165 253.29363538 376.66227258 257.1955719 372.74848938 C258.74181555 371.19584762 260.2849738 369.64018597 261.82800293 368.08435059 C266.39753491 363.49126919 271.02170781 359.04576935 275.94250488 354.83041382 C280.43094663 350.83735171 284.60879872 346.51197758 288.84375 342.25390625 C289.86342709 341.23235953 290.88332856 340.21103674 291.90344238 339.18992615 C294.56225061 336.52733563 297.21803958 333.86175401 299.87316895 331.19549561 C302.59328393 328.46507329 305.31630185 325.73754926 308.0390625 323.00976562 C313.36218863 317.675978 318.68212218 312.33902084 324 307 C322.5875357 304.04983747 321.2848714 302.07383162 318.8671875 299.85546875 C318.23425781 299.26894531 317.60132812 298.68242188 316.94921875 298.078125 C316.26472656 297.45421875 315.58023438 296.8303125 314.875 296.1875 C313.41392283 294.83739072 311.95298927 293.48712601 310.4921875 292.13671875 C309.37021973 291.10490479 309.37021973 291.10490479 308.22558594 290.05224609 C304.79639319 286.89013616 301.39893278 283.69455857 298 280.5 C296.66683953 279.24981564 295.33350562 277.9998162 294 276.75 C206 194.25 206 194.25 203.99975586 192.37475586 C202.66725663 191.125548 201.33473712 189.87636178 200.00219727 188.62719727 C196.65593489 185.49025515 193.31003281 182.35293042 189.96484375 179.21484375 C183.48366012 173.13559399 176.99822977 167.06102955 170.5 161 C163.32694966 154.30955173 156.16997151 147.60207242 149.01611328 140.89111328 C145.67807332 137.76003342 142.33898654 134.63007036 139 131.5 C137.66666159 130.25000541 136.33332826 129.00000541 135 127.75 C134.34 127.13125 133.68 126.5125 133 125.875 C63 60.25 63 60.25 60.99975586 58.37475586 C59.66725663 57.125548 58.33473712 55.87636178 57.00219727 54.62719727 C53.65593489 51.49025515 50.31003281 48.35293042 46.96484375 45.21484375 C41.10042428 39.71410921 35.23456038 34.21500238 29.35498047 28.73046875 C28.12575135 27.58374908 26.89690534 26.43661859 25.66845703 25.2890625 C22.33355169 22.17401191 18.99258086 19.06576661 15.64453125 15.96484375 C14.20046585 14.62245497 12.75645414 13.28000845 11.3125 11.9375 C10.64089844 11.31810547 9.96929688 10.69871094 9.27734375 10.06054688 C8.64570313 9.47208984 8.0140625 8.88363281 7.36328125 8.27734375 C6.80938721 7.76421631 6.25549316 7.25108887 5.68481445 6.72241211 C3.61759365 4.60906002 1.83443803 2.31626037 0 0 Z " fill="#FE3030" transform="translate(2097,1737)"/>
<path d="M0 0 C36.50833501 -0.75839712 73.01527 -1.33833663 109.52988478 -1.68515587 C113.85855906 -1.72642009 118.1872179 -1.7691336 122.51586914 -1.81274414 C123.80828812 -1.82572851 123.80828812 -1.82572851 125.12681658 -1.83897518 C139.00675659 -1.98186282 152.88210131 -2.24162356 166.75933146 -2.54604227 C181.04142938 -2.85668564 195.32115338 -3.03835472 209.60648972 -3.10492033 C217.61496807 -3.14581736 225.61385883 -3.24338752 233.61889458 -3.48909187 C288.09722469 -5.11351034 288.09722469 -5.11351034 304.67147332 9.42930824 C311.57033431 16.02221325 317.34623512 23.41433085 322.75684285 31.24819112 C327.01962128 37.2551333 332.32949297 42.47032457 337.5625 47.625 C338.45497437 48.51179443 338.45497437 48.51179443 339.36547852 49.41650391 C341.24119657 51.280165 343.12014903 53.14050842 345 55 C358.87680185 68.72651157 358.87680185 68.72651157 364.08984375 74.8671875 C368.96868107 80.31472364 374.30154442 85.36009501 379.5 90.5 C392.81604763 103.66606801 392.81604763 103.66606801 396.46875 107.96875 C401.89761801 114.35525683 408.04561369 120.11010163 414 126 C427.84734471 139.69737347 427.84734471 139.69737347 433.05859375 145.8359375 C438.10885617 151.46540506 443.62501559 156.68322842 449 162 C451.48219014 164.45530721 453.96189428 166.91305326 456.4375 169.375 C457.02523193 169.95878418 457.61296387 170.54256836 458.21850586 171.14404297 C461.86574495 174.79180362 465.33417914 178.52357407 468.5703125 182.546875 C470.22074026 184.22435895 471.85617286 185.06150056 474 186 C477.29312827 182.7318517 480.58275765 179.46023304 483.86938477 176.18554688 C484.9846729 175.07524416 486.10086211 173.96584571 487.21801758 172.85742188 C494.56568368 165.62553561 494.56568368 165.62553561 501.49609375 158 C506.97722278 151.57540479 513.17113376 145.77587516 519.17529297 139.84521484 C526.55066181 132.6240675 526.55066181 132.6240675 533.5 125 C538.97717042 118.57318587 545.17180142 112.77521568 551.17529297 106.84521484 C558.55066181 99.6240675 558.55066181 99.6240675 565.5 92 C570.97717042 85.57318587 577.17180142 79.77521568 583.17529297 73.84521484 C590.55066181 66.6240675 590.55066181 66.6240675 597.5 59 C602.97717042 52.57318587 609.17180142 46.77521568 615.17529297 40.84521484 C616.8169273 39.22187975 618.45538019 37.5953788 620.09375 35.96875 C620.5825061 35.48829224 621.07126221 35.00783447 621.5748291 34.51281738 C624.17714872 31.92850386 626.67142894 29.27815626 629.08541679 26.51673317 C629.70278324 25.81318994 630.32014968 25.10964671 630.9562242 24.38478398 C632.38204303 22.72106436 633.78070225 21.03384957 635.15782571 19.32960391 C651.48395968 -0.69929321 651.48395968 -0.69929321 665.1182487 -2.44097972 C670.81393194 -2.76699431 676.45521079 -2.74869169 682.15545368 -2.55344367 C685.71055199 -2.45676368 689.26501387 -2.49069987 692.82106018 -2.5072937 C698.95557603 -2.51872955 705.08487264 -2.45081917 711.2180748 -2.32606125 C720.08424895 -2.14583008 728.94794747 -2.08983035 737.81575443 -2.06232543 C752.20802126 -2.014393 766.59751616 -1.86859618 780.98828125 -1.65966797 C794.95200916 -1.45715274 808.91497925 -1.30171675 822.87988281 -1.20849609 C824.17503651 -1.19982622 824.17503651 -1.19982622 825.49635492 -1.19098119 C829.82876099 -1.16226652 834.16117235 -1.13446586 838.49358726 -1.10711932 C874.33103254 -0.87973189 910.16525875 -0.49285684 946 0 C945.04279019 1.12237693 944.0847808 2.24407198 943.12643433 3.36547852 C942.5930287 3.99019547 942.05962307 4.61491241 941.51005363 5.25856018 C939.80554149 7.22425548 938.0331865 9.09610035 936.1953125 10.9375 C935.52886719 11.60523438 934.86242188 12.27296875 934.17578125 12.9609375 C933.49902344 13.63382813 932.82226562 14.30671875 932.125 15 C931.45597656 15.67289063 930.78695312 16.34578125 930.09765625 17.0390625 C926.8716597 20.25884326 923.60993291 23.37775444 920.1484375 26.34375 C914.99594056 30.78933797 910.27493792 35.65655508 905.5 40.5 C900.16601368 45.9105141 894.83955219 51.21172831 889.06835938 56.15429688 C884.68533919 60.06549052 880.62254675 64.31830624 876.5 68.5 C871.16601368 73.9105141 865.83955219 79.21172831 860.06835938 84.15429688 C855.68533919 88.06549052 851.62254675 92.31830624 847.5 96.5 C842.16601368 101.9105141 836.83955219 107.21172831 831.06835938 112.15429688 C826.68533919 116.06549052 822.62254675 120.31830624 818.5 124.5 C813.16601368 129.9105141 807.83955219 135.21172831 802.06835938 140.15429688 C797.68533919 144.06549052 793.62254675 148.31830624 789.5 152.5 C784.16601368 157.9105141 778.83955219 163.21172831 773.06835938 168.15429688 C768.68533919 172.06549052 764.62254675 176.31830624 760.5 180.5 C755.16601368 185.9105141 749.83955219 191.21172831 744.06835938 196.15429688 C739.68533919 200.06549052 735.62254675 204.31830624 731.5 208.5 C726.16601368 213.9105141 720.83955219 219.21172831 715.06835938 224.15429688 C710.68533919 228.06549052 706.62254675 232.31830624 702.5 236.5 C697.16601368 241.9105141 691.83955219 247.21172831 686.06835938 252.15429688 C681.68533919 256.06549052 677.62254675 260.31830624 673.5 264.5 C668.16601368 269.9105141 662.83955219 275.21172831 657.06835938 280.15429688 C652.68533919 284.06549052 648.62254675 288.31830624 644.5 292.5 C642.70042547 294.32539339 640.89838231 296.14835671 639.09375 297.96875 C638.30677734 298.76732422 637.51980469 299.56589844 636.70898438 300.38867188 C634.66497713 302.35899465 632.60991736 304.25566448 630.47771072 306.12623215 C629.77087599 306.74696405 629.06404126 307.36769595 628.3357873 308.00723791 C626.75355207 309.35711184 625.14478024 310.67638061 623.5134902 311.96654367 C613.70096533 319.75733515 605.29527137 327.08517478 603.75615072 340.05299234 C603.43744263 345.85641864 603.43780686 351.62449482 603.59414458 357.43058038 C603.66930451 361.06097601 603.62656204 364.69043443 603.59928894 368.32124329 C603.56781445 374.58828619 603.6083967 380.85138565 603.70020294 387.11779022 C603.83281468 396.17679827 603.85322289 405.2334376 603.8476555 414.29328945 C603.84160405 428.99669927 603.92427771 443.69818369 604.06396484 458.40087891 C604.19933501 472.66948222 604.2919327 486.9373309 604.32861328 501.20654297 C604.33095573 502.09738142 604.33329817 502.98821987 604.3357116 503.90605342 C604.35370511 510.87464999 604.36924557 517.84325148 604.38401198 524.81185555 C604.45682001 558.87616665 604.74325412 592.93561894 605 627 C518.21 627 431.42 627 342 627 C342.10054687 595.04929687 342.10054687 595.04929687 342.203125 562.453125 C342.21883174 548.97262246 342.23158276 535.49221486 342.23046875 522.01171875 C342.23003946 514.93017552 342.23035972 507.84863293 342.23193359 500.76708984 C342.23209964 499.87957114 342.23226569 498.99205243 342.23243678 498.07763922 C342.23620748 483.76144194 342.28226869 469.44567854 342.34402815 455.12962738 C342.40649704 440.43025442 342.42333877 425.73133614 342.39809489 411.03184962 C342.38395561 401.96587086 342.40512465 392.90140145 342.47190216 383.83565167 C342.51432109 377.61331261 342.51229672 371.39196107 342.47584674 365.16958854 C342.4561296 361.58236674 342.45550464 357.99791853 342.50784111 354.41096306 C343.4254115 338.10358872 343.4254115 338.10358872 336.80704284 323.95467544 C334.34657199 321.67854013 331.79735922 319.853768 329 318 C327.60784798 316.81146847 326.22796584 315.60795494 324.875 314.375 C324.25109375 313.84261719 323.6271875 313.31023437 322.984375 312.76171875 C317.88523671 308.23472787 313.20485758 303.23826451 308.421875 298.3828125 C304.70782153 294.63458062 301.00716648 290.93586363 297 287.5 C291.14033045 282.47574519 285.83463192 276.87758088 280.421875 271.3828125 C276.70782153 267.63458062 273.00716648 263.93586363 269 260.5 C263.14033045 255.47574519 257.83463192 249.87758088 252.421875 244.3828125 C248.70782153 240.63458062 245.00716648 236.93586363 241 233.5 C235.14033045 228.47574519 229.83463192 222.87758088 224.421875 217.3828125 C220.70782153 213.63458062 217.00716648 209.93586363 213 206.5 C207.14033045 201.47574519 201.83463192 195.87758088 196.421875 190.3828125 C192.70782153 186.63458062 189.00716648 182.93586363 185 179.5 C179.14033045 174.47574519 173.83463192 168.87758088 168.421875 163.3828125 C164.70782153 159.63458062 161.00716648 155.93586363 157 152.5 C151.14033045 147.47574519 145.83463192 141.87758088 140.421875 136.3828125 C136.70782153 132.63458062 133.00716648 128.93586363 129 125.5 C123.14033045 120.47574519 117.83463192 114.87758088 112.421875 109.3828125 C108.70782153 105.63458062 105.00716648 101.93586363 101 98.5 C95.14033045 93.47574519 89.83463192 87.87758088 84.421875 82.3828125 C80.70782153 78.63458062 77.00716648 74.93586363 73 71.5 C67.14033045 66.47574519 61.83463192 60.87758088 56.421875 55.3828125 C52.08610736 51.00714516 47.69875327 46.80953594 43.0234375 42.80078125 C38.14125184 38.45582451 33.64880498 33.68329623 29.06640625 29.02734375 C24.81576139 24.73536361 20.50244059 20.62321666 15.91992188 16.68847656 C12.64262019 13.80625143 9.57505928 10.7198558 6.5 7.625 C5.86835938 6.99722656 5.23671875 6.36945312 4.5859375 5.72265625 C3.99039063 5.12582031 3.39484375 4.52898438 2.78125 3.9140625 C2.24564453 3.3773291 1.71003906 2.8405957 1.15820312 2.28759766 C0 1 0 1 0 0 Z " fill="#FE3030" transform="translate(2079,952)"/>
<path d="M0 0 C249.15 0 498.3 0 755 0 C755 51.15 755 102.3 755 155 C673.82 155 592.64 155 509 155 C509 310.76 509 466.52 509 627 C422.21 627 335.42 627 246 627 C246 471.24 246 315.48 246 155 C164.82 155 83.64 155 0 155 C0 103.85 0 52.7 0 0 Z " fill="#FE3030" transform="translate(293,952)"/>
<path d="M0 0 C22.65237082 20.5309209 38.37071687 47.06706275 41 78 C42.60012931 112.40433359 34.61591355 142.12517795 11.4375 168.25 C9.96379077 169.83841417 8.48511049 171.42224042 7 173 C6.20916016 173.88751953 6.20916016 173.88751953 5.40234375 174.79296875 C-4.13727852 185.06453135 -16.48121832 192.4722442 -29.16113281 198.17285156 C-30.80333086 198.91153544 -32.43022748 199.68402184 -34.0546875 200.4609375 C-55.44596196 209.82316638 -81.56097647 210.5513499 -104 205 C-104.67063477 204.8443457 -105.34126953 204.68869141 -106.03222656 204.52832031 C-123.74191482 200.34117835 -139.17359325 191.71565278 -153 180 C-153.81726562 179.33355469 -154.63453125 178.66710938 -155.4765625 177.98046875 C-161.44342077 172.94657286 -166.26281564 167.18538437 -171 161 C-171.91072266 159.83017578 -171.91072266 159.83017578 -172.83984375 158.63671875 C-192.13035812 132.60983428 -197.22938563 100.75413928 -193.67480469 69.10449219 C-192.88854335 64.23196755 -191.60346619 59.6631951 -190 55 C-189.63777344 53.88753906 -189.27554688 52.77507812 -188.90234375 51.62890625 C-177.82956217 20.36237386 -154.60056305 -3.64159799 -125.17553711 -18.2487793 C-84.61919817 -37.42484789 -33.44956121 -29.54136505 0 0 Z " fill="#010000" transform="translate(3015,1354)"/>
<path d="M0 0 C48.29199122 -0.1209091 48.29199122 -0.1209091 68.78515625 -0.14648438 C82.84362127 -0.16417189 96.90203173 -0.18477391 110.96044922 -0.22631836 C121.20660069 -0.25658217 131.45270719 -0.27565888 141.69890213 -0.28226548 C147.1049279 -0.28611642 152.51082525 -0.29491108 157.91680908 -0.31719017 C193.80302497 -0.45913804 229.62962712 0.38174446 265 7 C265.99757324 7.17756836 266.99514648 7.35513672 268.02294922 7.53808594 C289.05212158 11.33328159 310.85616499 17.89680132 324 36 C332.33457017 50.56069253 332.60207371 71.80902812 329.125 87.984375 C325.57128172 100.75704752 317.14545102 108.94732802 306.19140625 115.7421875 C277.9819558 131.27982851 241.81609096 133.535356 210.19702148 135.11279297 C209.37414103 135.15481268 208.55126058 135.19683239 207.70344436 135.24012542 C187.43289023 136.2512262 167.17182099 136.26157151 146.88103795 136.20278788 C141.6882302 136.18999087 136.49541813 136.18908788 131.30259705 136.18673706 C121.53969139 136.18060502 111.77683238 136.16431071 102.01394695 136.14403808 C88.77158594 136.11715746 75.5292115 136.1066393 62.28682995 136.09503365 C41.5245186 136.07642052 20.76230549 136.03652121 0 136 C0 91.12 0 46.24 0 0 Z " fill="#000000" transform="translate(600,1892)"/>
<path d="M0 0 C22.65237082 20.5309209 38.37071687 47.06706275 41 78 C42.60012931 112.40433359 34.61591355 142.12517795 11.4375 168.25 C9.96379077 169.83841417 8.48511049 171.42224042 7 173 C6.20916016 173.88751953 6.20916016 173.88751953 5.40234375 174.79296875 C-4.13727852 185.06453135 -16.48121832 192.4722442 -29.16113281 198.17285156 C-30.80333086 198.91153544 -32.43022748 199.68402184 -34.0546875 200.4609375 C-55.44596196 209.82316638 -81.56097647 210.5513499 -104 205 C-104.67063477 204.8443457 -105.34126953 204.68869141 -106.03222656 204.52832031 C-123.74191482 200.34117835 -139.17359325 191.71565278 -153 180 C-153.81726562 179.33355469 -154.63453125 178.66710938 -155.4765625 177.98046875 C-161.44342077 172.94657286 -166.26281564 167.18538437 -171 161 C-171.91072266 159.83017578 -171.91072266 159.83017578 -172.83984375 158.63671875 C-192.13035812 132.60983428 -197.22938563 100.75413928 -193.67480469 69.10449219 C-192.88854335 64.23196755 -191.60346619 59.6631951 -190 55 C-189.63777344 53.88753906 -189.27554688 52.77507812 -188.90234375 51.62890625 C-177.82956217 20.36237386 -154.60056305 -3.64159799 -125.17553711 -18.2487793 C-84.61919817 -37.42484789 -33.44956121 -29.54136505 0 0 Z M-135 20 C-135.79921875 20.64324219 -136.5984375 21.28648438 -137.421875 21.94921875 C-152.06479322 34.25017955 -164.84954431 54.78926248 -167 74 C-169.04604866 102.55960647 -164.96584564 126.73322855 -146 149 C-129.92309635 167.44262419 -108.43018776 179.33996848 -83.78320312 181.1640625 C-57.46695353 182.5240754 -33.53858565 173.49199075 -14 156 C-13.36707031 155.44957031 -12.73414062 154.89914062 -12.08203125 154.33203125 C2.20054848 141.09531548 12.84829567 119.63769787 14.19042969 100.24902344 C14.2671607 97.39203898 14.27799704 94.54535215 14.25 91.6875 C14.24250732 90.6756665 14.23501465 89.66383301 14.22729492 88.62133789 C13.86415239 63.33322839 4.20737181 42.66026596 -13.125 24.375 C-23.45359935 14.40603155 -35.31503753 7.33637317 -49 3 C-49.98540771 2.68675781 -49.98540771 2.68675781 -50.99072266 2.3671875 C-80.09269799 -6.4859766 -111.86734556 0.23739054 -135 20 Z " fill="#F72222" transform="translate(3015,1354)"/>
<path d="M0 0 C17.325 -0.061875 17.325 -0.061875 35 -0.125 C38.61324219 -0.14320801 42.22648437 -0.16141602 45.94921875 -0.18017578 C50.44726562 -0.18920898 50.44726562 -0.18920898 52.56958008 -0.19088745 C54.01555624 -0.19390858 55.46152819 -0.20083489 56.9074707 -0.21115112 C74.40630233 -0.329483 95.25962895 -0.42241709 109 12 C114.1264529 17.61984391 114.62401606 23.85442474 114.44946289 31.18481445 C114.05735519 38.84495073 112.85711449 43.57675844 107.0625 48.875 C104.50173537 50.99663543 102.02045534 52.60802282 99 54 C99.79664062 54.54527344 99.79664062 54.54527344 100.609375 55.1015625 C109.1071475 61.14924731 111.4305729 66.59804678 113.484375 76.7578125 C114 80 114 80 114 84 C103.11 84 92.22 84 81 84 C77.76923077 76.46153846 77.76923077 76.46153846 76.625 72.375 C75.05395796 67.54671896 72.58425353 64.66509661 68.28808594 61.89697266 C65.10161943 60.64781794 62.24483256 60.6699549 58.828125 60.5859375 C57.8044986 60.55688828 57.8044986 60.55688828 56.76019287 60.5272522 C54.59025392 60.46768902 52.42026123 60.42116554 50.25 60.375 C48.77471703 60.33679869 47.29945585 60.2977457 45.82421875 60.2578125 C42.21626215 60.16040985 38.60852487 60.08066114 35 60 C35 67.92 35 75.84 35 84 C23.45 84 11.9 84 0 84 C0 56.28 0 28.56 0 0 Z " fill="#F82222" transform="translate(2881,1402)"/>
<path d="M0 0 C4.53550082 -0.06930307 9.06912563 -0.12890057 13.60473633 -0.16479492 C15.14386255 -0.17977543 16.68294688 -0.2001671 18.22192383 -0.22631836 C34.29642378 -0.49240064 34.29642378 -0.49240064 42 3 C44 5 44 5 44.375 8.375 C44 12 44 12 42.5 14.3125 C37.01484724 18.01497811 30.65993614 18.24725755 24.21875 18.1953125 C23.51979614 18.1924826 22.82084229 18.18965271 22.10070801 18.18673706 C19.90028684 18.1756727 17.70029507 18.15059606 15.5 18.125 C13.99479761 18.11495235 12.48958874 18.10582965 10.984375 18.09765625 C7.32262405 18.07749242 3.66178427 18.038321 0 18 C0 12.06 0 6.12 0 0 Z " fill="#040000" transform="translate(2916,1423)"/>
</svg>
